<svg height="511pt" viewBox="1 -46 511.99998 511" width="511pt" xmlns="http://www.w3.org/2000/svg"><path d="m65.707031 260.679688h380.585938v46.730468h-380.585938zm0 0" fill="#bab8b9"/><path d="m42.339844 109.875h46.734375v288.390625h-46.734375zm0 0" fill="#d4d2d3"/><path d="m104.320312 377.207031h-77.226562c-6.960938 0-12.605469 5.644531-12.605469 12.605469v16.90625c0 6.964844 5.644531 12.609375 12.605469 12.609375h77.226562c6.960938 0 12.605469-5.644531 12.605469-12.609375v-16.90625c0-6.960938-5.644531-12.605469-12.605469-12.605469zm0 0" fill="#465059"/><path d="m422.925781 109.875h46.734375v288.390625h-46.734375zm0 0" fill="#d4d2d3"/><g fill="#465059"><path d="m407.679688 377.207031h77.226562c6.960938 0 12.605469 5.644531 12.605469 12.605469v16.90625c0 6.964844-5.644531 12.609375-12.605469 12.609375h-77.226562c-6.960938 0-12.605469-5.644531-12.605469-12.609375v-16.90625c0-6.960938 5.644531-12.605469 12.605469-12.605469zm0 0"/><path d="m109.382812.5-75.65625 36.972656-33.726562 72.402344v39.992188c0 12.464843 10.097656 22.558593 22.5625 22.558593h19.777344l109.511718-75.203125 62.425782-96.722656zm0 0"/><path d="m279.21875.5-127.367188 96.722656-44.570312 75.203125h104.894531l118.441407-85.960937 53.496093-85.964844zm0 0"/><path d="m489.4375.5h-40.382812l-118.4375 85.964844-53.5 85.960937h104.90625l92.960937-40.175781 37.015625-89.800781v-19.386719c0-12.457031-10.097656-22.5625-22.5625-22.5625zm0 0"/></g><path d="m109.382812.5-109.382812 109.375v-86.8125c0-12.457031 10.097656-22.5625 22.5625-22.5625zm0 0" fill="#ffcd38"/><path d="m279.21875.5-171.9375 171.925781h-64.941406l171.9375-171.925781zm0 0" fill="#ffcd38"/><path d="m449.054688.5-171.9375 171.925781h-64.941407l171.9375-171.925781zm0 0" fill="#ffcd38"/><path d="m512 42.449219v107.417969c0 12.464843-10.097656 22.558593-22.5625 22.558593h-107.414062zm0 0" fill="#ffcd38"/><path d="m42.339844 172.425781h46.734375v31.097657h-46.734375zm0 0" fill="#bab8b9"/><path d="m422.925781 172.425781h46.734375v31.097657h-46.734375zm0 0" fill="#bab8b9"/></svg>