<svg width="670" height="531" viewBox="0 0 670 531" fill="none" xmlns="http://www.w3.org/2000/svg">
<g clip-path="url(#clip0)">
<path d="M455.251 249.918C456.613 249.035 457.685 247.811 458.344 246.386C459.003 244.961 459.222 243.391 458.978 241.854C458.734 240.318 458.036 238.876 456.963 237.693C455.89 236.51 454.484 235.633 452.906 235.161L432.57 229.077L421.396 238.16L446.064 250.423C447.498 251.136 449.113 251.466 450.733 251.377C452.353 251.288 453.916 250.783 455.251 249.918V249.918Z" fill="#D0896A"/>
<path d="M421.053 244.091L434.46 229.51L384.538 178.261L361.553 128.275C360.039 124.981 357.343 122.289 353.933 120.666C350.523 119.042 346.615 118.589 342.886 119.387V119.387C340.448 119.908 338.169 120.946 336.225 122.422C334.281 123.898 332.724 125.772 331.673 127.901C330.621 130.029 330.104 132.355 330.16 134.701C330.216 137.046 330.844 139.348 331.997 141.43L361.996 195.632L421.053 244.091Z" fill="#F05938"/>
<path d="M433.37 270.906C434.908 270.329 436.242 269.359 437.222 268.107C438.202 266.855 438.789 265.37 438.915 263.821C439.041 262.272 438.701 260.721 437.935 259.344C437.169 257.967 436.007 256.818 434.581 256.029L416.194 245.858L403.147 252.385L424.293 269.484C425.522 270.478 427.019 271.136 428.62 271.387C430.22 271.638 431.863 271.471 433.37 270.906V270.906Z" fill="#D0896A"/>
<path d="M289.205 342.945L301.382 349.472L376.573 297.558C379.33 295.791 381.668 293.508 383.44 290.853C385.212 288.197 386.379 285.227 386.869 282.128V282.128C387.48 278.21 386.993 274.211 385.456 270.523C383.918 266.836 381.383 263.587 378.1 261.098C361.495 248.447 340.973 236.973 319.213 225.87L287.03 240.555C300.293 266.064 315.016 287.096 336.608 287.059L289.205 342.945Z" fill="#9B95FF"/>
<path d="M283.897 359.564C294 369.165 307.304 376.034 322.164 381.576C323.284 381.992 324.514 382.072 325.685 381.805C326.855 381.539 327.909 380.938 328.701 380.086C329.662 379.052 330.174 377.717 330.134 376.346C330.093 374.974 329.505 373.667 328.484 372.685L318.852 363.409L313.032 343.966C300.534 349.761 292.34 348.464 290.724 336.324L282.847 346.401C281.324 348.353 280.593 350.751 280.786 353.164C280.978 355.576 282.081 357.846 283.897 359.564V359.564Z" fill="#2F2E41"/>
<path d="M390.535 113.282C406.388 113.282 419.238 101.228 419.238 86.3584C419.238 71.4891 406.388 59.4352 390.535 59.4352C374.683 59.4352 361.832 71.4891 361.832 86.3584C361.832 101.228 374.683 113.282 390.535 113.282Z" fill="#D0896A"/>
<path d="M337.913 119.401L356.179 131.638L384.012 105.531L370.095 89.2139L337.913 119.401Z" fill="#D0896A"/>
<path d="M235.278 225.462C257.804 242.68 282.403 253.998 312.689 249.122C321.841 235.397 328.599 206.486 340.088 194.051C365.177 166.897 377.62 142.693 369.66 120.624C361.923 115.879 362.263 115.887 356.614 100.228C312.362 107.907 269.521 154.764 235.278 225.462Z" fill="#F05938"/>
<path d="M249.772 462.534C262.774 468.301 277.783 470.472 293.767 470.895C294.972 470.926 296.157 470.605 297.159 469.978C298.161 469.351 298.931 468.447 299.363 467.393V467.393C299.888 466.112 299.88 464.693 299.341 463.418C298.801 462.143 297.77 461.105 296.452 460.51L284.012 454.897L271.434 438.507C261.814 447.971 253.643 449.39 247.685 438.507L243.971 450.507C243.255 452.831 243.446 455.319 244.509 457.523C245.572 459.727 247.438 461.503 249.772 462.534Z" fill="#2F2E41"/>
<path d="M401.408 258.096L417.934 246.674L381.403 186.301L370.835 132.774C370.139 129.247 368.148 126.06 365.208 123.766C362.268 121.472 358.565 120.216 354.741 120.216V120.216C352.24 120.216 349.772 120.754 347.527 121.788C345.282 122.822 343.32 124.324 341.79 126.18C340.261 128.036 339.205 130.196 338.704 132.495C338.203 134.793 338.271 137.168 338.901 139.439L355.309 198.539L401.408 258.096Z" fill="#F05938"/>
<path d="M413.254 78.55C414.378 79.8134 415.819 80.7946 417.448 81.4051C419.077 82.0156 420.842 82.2363 422.585 82.0472C426.04 81.542 429.115 78.7774 429.336 75.504C429.527 72.6773 427.756 70.0847 425.897 67.8526C421.796 62.9304 416.925 58.6176 411.45 55.0602C408.839 53.3649 405.959 51.8043 402.79 51.6215C401.221 51.531 399.65 51.7846 398.08 51.7213C395.194 51.605 392.489 50.4335 389.674 49.8268C386.783 49.2227 383.787 49.2081 380.89 49.784C377.992 50.3599 375.26 51.5128 372.879 53.1648C371.291 54.3029 369.855 55.616 368.601 57.0759C365.134 61.0534 362.809 65.7964 361.847 70.8542C360.333 78.8715 362.222 87.6644 358.115 94.8372C362.935 94.4151 366.798 90.9682 371.377 89.4948C374.774 88.413 378.462 88.4439 381.838 89.5823C382.708 90.0005 383.688 90.1725 384.661 90.0774C385.464 89.8116 386.166 89.3302 386.679 88.6931L395.434 79.7577C397.216 77.9392 399.24 76.0018 401.859 75.75C403.423 75.6993 404.978 75.9886 406.403 76.5954C409.913 77.8404 413.309 79.3538 416.555 81.1202" fill="#2F2E41"/>
<path d="M290.5 338L305 270L337 287L292 340.5L290.5 338Z" fill="#9B95FF"/>
<path d="M116.589 252.069L140.259 315.442L212.119 326.421V362.351H24.485V232.604H88.541C101.036 232.604 112.218 240.364 116.589 252.069Z" fill="#82B1FF"/>
<path d="M95.347 322.429C126.424 322.429 153.864 338.295 169.997 362.351H24.485V357.117C40.937 336.021 66.583 322.429 95.347 322.429Z" fill="#448AFF"/>
<path d="M95.347 482.117C56.7621 482.117 25.483 450.838 25.483 412.253C25.483 373.668 56.7621 342.389 95.347 342.389C133.932 342.389 165.211 373.668 165.211 412.253C165.211 450.838 133.932 482.117 95.347 482.117Z" fill="#D8D7DA"/>
<path d="M451.651 482.117C413.066 482.117 381.787 450.838 381.787 412.253C381.787 373.668 413.066 342.389 451.651 342.389C490.236 342.389 521.515 373.668 521.515 412.253C521.515 450.838 490.236 482.117 451.651 482.117Z" fill="#D8D7DA"/>
<path d="M24.485 143.778H104.021C139.21 143.778 170.897 122.473 184.173 89.883H24.485V143.778Z" fill="#FF5352"/>
<path d="M171.164 89.883H184.174C170.897 122.471 139.211 143.778 104.022 143.778H24.486V121.821H104.022C130.506 121.821 155.003 109.748 171.164 89.883Z" fill="#F23030"/>
<path d="M17 151.263V82.398H195.306L191.106 92.708C180.561 118.591 159.585 137.798 134.146 146.347L135.139 146.782L100.012 226.943C110.691 230.414 119.549 238.603 123.598 249.447L145.735 308.706L219.605 319.992V369.836H159.981C166.537 379.793 170.859 391.34 172.221 403.77H211.343L291.52 295.58L287.006 276.019H261.024V261.048H330.888V276.019H302.372L306.057 291.988H446.081C451.751 278.516 465.085 269.033 480.595 269.033H492.139C488.796 255.855 476.833 246.078 462.63 246.078H428.696V231.107H462.63C487.67 231.107 508.041 251.478 508.041 276.518V284.003H480.595C468.212 284.003 458.139 294.077 458.139 306.459V335.196C497.762 338.505 529 371.79 529 412.253C529 454.903 494.302 489.602 451.651 489.602C409 489.602 374.302 454.903 374.302 412.253C374.302 372.471 404.495 339.619 443.168 335.379V306.958H409.368L333.866 418.74H172.403C169.094 458.364 135.81 489.602 95.347 489.602C52.696 489.602 17.998 454.903 17.998 412.253C17.998 396.599 22.687 382.025 30.713 369.836H17V225.119H42.481L29.204 151.263H17ZM172.154 97.368H31.971V136.292H104.02C132.435 136.292 158.097 121.334 172.154 97.368ZM104.02 151.263H77.881V225.119H84.466L117.238 150.332C112.905 150.939 108.493 151.263 104.02 151.263ZM229.977 403.77H316.487L295.945 314.754L229.977 403.77ZM389.273 412.253C389.273 446.649 417.256 474.631 451.651 474.631C486.046 474.631 514.029 446.649 514.029 412.253C514.029 380.048 489.496 353.468 458.138 350.212V381.456H443.167V350.467C412.773 354.621 389.273 380.736 389.273 412.253ZM391.301 306.959H309.51L330.338 397.216L391.301 306.959ZM95.347 474.632C127.552 474.632 154.132 450.099 157.388 418.741H117.872V403.77H157.133C152.979 373.375 126.863 349.875 95.347 349.875C60.952 349.875 32.969 377.857 32.969 412.253C32.969 446.649 60.952 474.632 95.347 474.632ZM31.971 354.866H43.547C57.269 342.468 75.44 334.905 95.347 334.905C115.254 334.905 133.425 342.468 147.147 354.866H204.634V332.85L134.785 322.179L109.573 254.685C106.313 245.956 97.862 240.091 88.541 240.091H31.97V354.866H31.971ZM57.693 225.119H62.911V151.263H44.416L57.693 225.119Z" fill="black"/>
<path d="M443.167 396.424H458.138V411.251H443.167V396.424Z" fill="black"/>
<path d="M88.362 403.77H102.902V418.741H88.362V403.77Z" fill="black"/>
<path d="M46.942 321.431H61.913V307.278H46.942V321.431ZM46.942 292.307H61.913V270.032H88.542V255.06H46.942V292.307Z" fill="white"/>
<path d="M47.44 109.345H82.372V124.316H47.44V109.345Z" fill="white"/>
<path d="M95.347 459.661C111.842 459.661 126.904 451.27 135.639 437.216L122.924 429.313C116.94 438.941 106.631 444.69 95.348 444.69V459.661H95.347Z" fill="white"/>
<path d="M47.94 412.253H62.91C62.91 394.367 77.462 379.816 95.347 379.816V364.845C69.207 364.846 47.94 386.113 47.94 412.253Z" fill="white"/>
<path d="M404.244 412.253H419.215C419.215 402.483 423.577 393.319 431.183 387.112L421.717 375.514C410.612 384.576 404.244 397.968 404.244 412.253Z" fill="white"/>
<path d="M451.659 459.661C457.553 459.661 463.312 458.585 468.776 456.462L463.355 442.507C459.626 443.955 455.691 444.691 451.659 444.691C451.657 444.691 451.655 444.691 451.653 444.691L451.65 459.662C451.652 459.661 451.656 459.661 451.659 459.661ZM483.76 447.107C488.151 443.058 491.698 438.292 494.302 432.942L480.841 426.391C479.056 430.057 476.624 433.323 473.612 436.101L483.76 447.107ZM498.922 415.865C499.013 414.668 499.059 413.453 499.059 412.253C499.059 398.67 493.198 385.709 482.981 376.697L473.078 387.925C480.074 394.096 484.087 402.963 484.087 412.252C484.087 413.077 484.055 413.913 483.993 414.737L498.922 415.865Z" fill="white"/>
<path d="M250.064 445.743L268.33 446.559L310.08 245.042L238.322 223.422C231.158 248.547 241.795 289.672 260.502 338.05L250.064 445.743Z" fill="#9B95FF"/>
</g>
<defs>
<clipPath id="clip0">
<rect width="670" height="531" fill="white"/>
</clipPath>
</defs>
</svg>
